<svg xmlns="http://www.w3.org/2000/svg" width="45" height="45" viewBox="0 0 45 45"><defs><style>.a{fill:#2ca4f3;}.b{fill:#fff;}</style></defs><g transform="translate(0.174)"><rect class="a" width="45" height="45" rx="22.5" transform="translate(-0.174)"/><g transform="translate(11.971 8.564)"><path class="b" d="M179.534,5.421a2.71,2.71,0,1,0-2.711-2.71A2.711,2.711,0,0,0,179.534,5.421Z" transform="translate(-169.586 0)"/><path class="b" d="M61.516,208.258a5.991,5.991,0,1,1-8.167-7.137V198.58a8.378,8.378,0,1,0,10.014,11.53l-.946-1.859Z" transform="translate(-47.38 -187.478)"/><path class="b" d="M197.086,134.736l-3.631-7.138a1.589,1.589,0,0,0-1.418-.87h-4.65v-1.06h4a1.252,1.252,0,0,0,1.194-1.194,1.193,1.193,0,0,0-1.194-1.194h-4v-3.6a2.387,2.387,0,1,0-4.774,0v7.792a2.435,2.435,0,0,0,2.435,2.435h6.013l3.188,6.268a1.591,1.591,0,1,0,2.836-1.443Z" transform="translate(-175.052 -110.738)"/></g></g></svg>