<svg xmlns="http://www.w3.org/2000/svg" width="30" height="30" viewBox="0 0 30 30"><defs><style>.a{fill:#2ca4f3;}.b{fill:#fff;}</style></defs><g transform="translate(0 -0.286)"><rect class="a" width="30" height="30" rx="15" transform="translate(0 0.286)"/><g transform="translate(7.966 5.694)"><path class="b" d="M178.625,3.6a1.8,1.8,0,1,0-1.8-1.8A1.8,1.8,0,0,0,178.625,3.6Z" transform="translate(-172.012 0)"/><path class="b" d="M56.779,205.015a3.983,3.983,0,1,1-5.43-4.745V198.58a5.57,5.57,0,1,0,6.658,7.666l-.629-1.236Z" transform="translate(-47.38 -191.199)"/><path class="b" d="M192.235,128.891l-2.414-4.746a1.057,1.057,0,0,0-.943-.579h-3.092v-.7h2.661a.832.832,0,0,0,.794-.794.793.793,0,0,0-.794-.794h-2.661v-2.391a1.587,1.587,0,1,0-3.174,0v5.181a1.619,1.619,0,0,0,1.619,1.619h4l2.12,4.167a1.058,1.058,0,1,0,1.886-.959Z" transform="translate(-177.586 -112.936)"/></g></g></svg>