<svg xmlns="http://www.w3.org/2000/svg" width="41.025" height="32.82" viewBox="0 0 41.025 32.82"><defs><style>.a{fill:#d15b49;}</style></defs><path class="a" d="M13.26,15.714a4.794,4.794,0,0,0-3.688,4.75,7.613,7.613,0,0,1,3.2-1.982Zm-7.118,3.2L4.108,7.4a.318.318,0,0,1,.015-.17A25.029,25.029,0,0,1,16.239,4.092c.1,0,.207.011.311.012a6.156,6.156,0,0,1,3.307-1.667A31.171,31.171,0,0,1,23.522,2.1,4.119,4.119,0,0,0,20.844.365,29.085,29.085,0,0,0,2.128,3.658,4.236,4.236,0,0,0,.067,8.114L2.1,19.621c.912,5.161,8.739,9.107,13.105,9.107a5.9,5.9,0,0,0,.642-.051,17.212,17.212,0,0,1-2.532-4.332c-3.052-.832-6.8-3.309-7.175-5.435ZM12.395,10.1a2.532,2.532,0,0,0-.261-.731A4.038,4.038,0,0,1,9.87,10.542a4.041,4.041,0,0,1-2.531-.331,2.52,2.52,0,0,0,.006.776,2.564,2.564,0,0,0,5.05-.888ZM38.9,7.75A29.057,29.057,0,0,0,20.18,4.458a4.244,4.244,0,0,0-3.464,3.485L14.682,19.45C13.7,25.03,20.79,32.031,24.83,32.741s13.107-3.448,14.093-9.028l2.034-11.507A4.235,4.235,0,0,0,38.9,7.75Zm-17.515,6.2a2.564,2.564,0,0,1,5.051.888,2.532,2.532,0,0,1-.261.731,4.257,4.257,0,0,0-4.795-.843,2.5,2.5,0,0,1,.005-.776ZM25.9,26.7a6.832,6.832,0,0,1-5.708-7.237,10.554,10.554,0,0,0,6.377,3.447,10.572,10.572,0,0,0,7.175-1.064A6.846,6.846,0,0,1,25.9,26.7Zm8.352-9.7a4.258,4.258,0,0,0-4.8-.843,2.52,2.52,0,0,1,.006-.776,2.564,2.564,0,0,1,5.051.888,2.518,2.518,0,0,1-.261.731Z" transform="translate(0)"/></svg>