<svg xmlns="http://www.w3.org/2000/svg" width="18.736" height="19.034" viewBox="0 0 18.736 19.034"><defs><style>.a{fill:#d15b49;}</style></defs><g transform="translate(-0.977)"><g transform="translate(0.977)"><path class="a" d="M40.046,55.379l-.292,1.734a.632.632,0,0,0,.917.666l1.559-.814,1.559.814a.633.633,0,0,0,.917-.666l-.292-1.734,1.256-1.232a.633.633,0,0,0-.35-1.078l-1.74-.258L42.8,51.236a.633.633,0,0,0-1.134,0l-.783,1.575-1.74.258a.633.633,0,0,0-.35,1.078Z" transform="translate(-32.862 -43.125)"/><path class="a" d="M17.823,2.023H15.83V.918A.918.918,0,0,0,14.912,0h-.146a.918.918,0,0,0-.918.918V2.023H6.818V.918A.918.918,0,0,0,5.9,0H5.754a.918.918,0,0,0-.918.918V2.023H2.867a1.892,1.892,0,0,0-1.89,1.89v13.23a1.893,1.893,0,0,0,1.89,1.89H17.823a1.893,1.893,0,0,0,1.89-1.89V3.914A1.893,1.893,0,0,0,17.823,2.023ZM17.576,16.9H3.114V6.6H17.576Z" transform="translate(-0.977)"/></g></g></svg>