<svg xmlns="http://www.w3.org/2000/svg" width="30" height="30" viewBox="0 0 30 30"><defs><style>.a,.d{fill:none;}.a{stroke:#ffdb29;stroke-width:2px;}.b{fill:#ffdb29;}.c{stroke:none;}</style></defs><g transform="translate(-188.003 -467.521)"><g transform="translate(188.003 467.997)"><g class="a" transform="translate(0 -0.476)"><circle class="c" cx="15" cy="15" r="15"/><circle class="d" cx="15" cy="15" r="14"/></g></g><g transform="translate(194.348 458.225)"><g transform="translate(8.147 15.5)"><g transform="translate(0 0)"><path class="b" d="M241.507,15.5a.507.507,0,0,0-.507.507v1.014a.507.507,0,1,0,1.014,0V16.007A.507.507,0,0,0,241.507,15.5Z" transform="translate(-241 -15.5)"/></g></g><g transform="translate(9.817 16.663)"><g transform="translate(0 0)"><path class="b" d="M291.977,50.044a.507.507,0,0,0-.717,0l-.717.717a.507.507,0,0,0,.717.717l.717-.717A.507.507,0,0,0,291.977,50.044Z" transform="translate(-290.395 -49.895)"/></g></g><g transform="translate(5.761 16.663)"><g transform="translate(0 0)"><path class="b" d="M171.977,50.761l-.717-.717a.507.507,0,1,0-.717.717l.717.717a.507.507,0,0,0,.717-.717Z" transform="translate(-170.395 -49.895)"/></g></g><g transform="translate(7.183 20.375)"><path class="b" d="M220.51,161.54a1.521,1.521,0,0,0-1.762-1.234,1.639,1.639,0,0,0-.687.293,2.021,2.021,0,0,0-3.628.64,1.5,1.5,0,0,0-.713-.051,1.521,1.521,0,1,0,1.575,2.257,2.007,2.007,0,0,0,2.711-.478,1.586,1.586,0,0,0,1.27.337A1.521,1.521,0,0,0,220.51,161.54Z" transform="translate(-212.463 -159.717)"/></g><g transform="translate(2.056 20.375)"><path class="b" d="M65.294,159.748a2.079,2.079,0,0,0-2.054.851,1.5,1.5,0,0,0-.653-.293,1.521,1.521,0,1,0,.708,2.659,2.1,2.1,0,0,0,1.295.777,1.969,1.969,0,0,0,.57.009,2.505,2.505,0,0,1,1.257-3.373A1.988,1.988,0,0,0,65.294,159.748Z" transform="translate(-60.802 -159.717)"/></g><g transform="translate(0 24.76)"><g transform="translate(0 0)"><path class="b" d="M7.567,290.325A2.519,2.519,0,0,1,7.031,290a3,3,0,0,1-1.363.074,3.146,3.146,0,0,1-1.29-.536,2.493,2.493,0,0,1-1.24.1l-1-.176a1.521,1.521,0,0,0-1.762,1.234l-.352,2a1.521,1.521,0,0,0,1.234,1.762l.5.088a1.014,1.014,0,0,0,.823,1.175l4.029.7a1.014,1.014,0,0,0,1.175-.823l.356-2.02Zm-5.634,3.212-.5-.088a.507.507,0,0,1-.411-.587l.352-2a.507.507,0,0,1,.587-.411l.5.088Z" transform="translate(0 -289.43)"/></g></g><g transform="translate(8.635 24.76)"><g transform="translate(0 0)"><path class="b" d="M264.082,292.687l-.352-2a1.521,1.521,0,0,0-1.762-1.234l-1,.176h0a2.628,2.628,0,0,1-1.274-.1,3.011,3.011,0,0,1-2.619.462,2.51,2.51,0,0,1-1.133.514,2.547,2.547,0,0,1-.443.039c-.023,0-.044-.005-.067-.006l.89,5.049a1.014,1.014,0,0,0,1.175.823l4.029-.7a1.014,1.014,0,0,0,.823-1.175l.5-.088A1.521,1.521,0,0,0,264.082,292.687Zm-1.41.763-.5.088-.528-3,.5-.088a.507.507,0,0,1,.587.411l.352,2A.507.507,0,0,1,262.672,293.45Z" transform="translate(-255.432 -289.432)"/></g></g></g></g></svg>