<svg xmlns="http://www.w3.org/2000/svg" width="36.176" height="36.176" viewBox="0 0 36.176 36.176"><defs><style>.a{fill:#d15b49;}</style></defs><path class="a" d="M4.522,27.059a1.13,1.13,0,0,1-.763-.3C3.607,26.623,0,23.289,0,19.805A4.676,4.676,0,0,1,4.522,15a4.676,4.676,0,0,1,4.522,4.805c0,3.485-3.607,6.818-3.759,6.958A1.13,1.13,0,0,1,4.522,27.059Z" transform="translate(0 7.61)"/><path class="a" d="M22.454,29.581H3.38a1.13,1.13,0,0,1,0-2.261H22.454a.376.376,0,0,0,.253-.654L12.682,17.593A2.637,2.637,0,0,1,14.453,13H27.5a1.13,1.13,0,0,1,0,2.261H14.453a.376.376,0,0,0-.253.654l10.025,9.073a2.637,2.637,0,0,1-1.771,4.593Z" transform="translate(1.141 6.595)"/><path class="a" d="M21.537,0A7.593,7.593,0,0,0,14,7.63c0,5.808,6.524,11.456,6.8,11.694a1.129,1.129,0,0,0,1.468,0c.279-.238,6.8-5.886,6.8-11.694A7.593,7.593,0,0,0,21.537,0Zm0,10.551a3.015,3.015,0,1,1,3.015-3.015A3.018,3.018,0,0,1,21.537,10.551Z" transform="translate(7.103)"/></svg>