<svg xmlns="http://www.w3.org/2000/svg" width="38" height="38" viewBox="0 0 38 38"><defs><style>.a{fill:rgba(0,0,0,0.5);}.b{fill:#fff;opacity:0.7;}</style></defs><g transform="translate(-297.563 -86.563)"><g transform="translate(298 87)"><circle class="a" cx="19" cy="19" r="19" transform="translate(-0.438 -0.438)"/></g><path class="b" d="M18.467,16.214a2.546,2.546,0,0,0-1.822.7L9.965,13.05a3.129,3.129,0,0,0,.094-.652,3.127,3.127,0,0,0-.094-.652l6.587-3.815a2.8,2.8,0,1,0-.888-2.047,3.11,3.11,0,0,0,.094.652L9.171,10.351a2.812,2.812,0,0,0-1.915-.744A2.766,2.766,0,0,0,4.5,12.4a2.812,2.812,0,0,0,4.718,2.047l6.633,3.861a2.334,2.334,0,0,0-.093.6,2.709,2.709,0,1,0,2.709-2.7Z" transform="translate(303.087 93.287)"/></g></svg>