<svg xmlns="http://www.w3.org/2000/svg" width="24.548" height="24.548" viewBox="0 0 24.548 24.548"><defs><style>.a{fill:none;stroke:#df8d81;stroke-linecap:round;stroke-linejoin:round;stroke-width:2px;}</style></defs><g transform="translate(-0.5 -0.5)"><path class="a" d="M19.649,16.575A3.075,3.075,0,1,1,16.575,13.5,3.075,3.075,0,0,1,19.649,16.575Z" transform="translate(-3.801 -3.801)"/><path class="a" d="M20.358,15.848a1.691,1.691,0,0,0,.338,1.865l.061.061a2.051,2.051,0,1,1-2.9,2.9l-.061-.061a1.7,1.7,0,0,0-2.89,1.209V22a2.05,2.05,0,1,1-4.1,0v-.092A1.691,1.691,0,0,0,9.7,20.358a1.691,1.691,0,0,0-1.865.338l-.061.061a2.051,2.051,0,1,1-2.9-2.9l.061-.061a1.7,1.7,0,0,0-1.209-2.89H3.55a2.05,2.05,0,1,1,0-4.1h.092A1.691,1.691,0,0,0,5.19,9.7a1.691,1.691,0,0,0-.338-1.865L4.79,7.772a2.051,2.051,0,1,1,2.9-2.9l.061.061a1.691,1.691,0,0,0,1.865.338H9.7a1.691,1.691,0,0,0,1.025-1.548V3.55a2.05,2.05,0,0,1,4.1,0v.092a1.7,1.7,0,0,0,2.89,1.209l.061-.061a2.051,2.051,0,1,1,2.9,2.9l-.061.061a1.691,1.691,0,0,0-.338,1.865V9.7a1.691,1.691,0,0,0,1.548,1.025H22a2.05,2.05,0,1,1,0,4.1h-.092a1.691,1.691,0,0,0-1.548,1.025Z" transform="translate(0 0)"/></g></svg>