<svg xmlns="http://www.w3.org/2000/svg" width="30" height="30" viewBox="0 0 30 30"><defs><style>.a,.d{fill:none;}.a{stroke:#ffdb29;stroke-width:2px;}.b{fill:#ffdb29;}.c{stroke:none;}</style></defs><g transform="translate(-215 -1028)"><g class="a" transform="translate(215 1028)"><rect class="c" width="30" height="30" rx="15"/><rect class="d" x="1" y="1" width="28" height="28" rx="14"/></g><g transform="translate(220.733 1034.215)"><path class="b" d="M25.88,8.378l-.535-.963L22.164,9.182h-1.25a2.657,2.657,0,0,0-.093-.684,8.213,8.213,0,0,0-.361-1.032l1.312-.525a1.545,1.545,0,0,0-1.114-2.881l-1.007.314a2.926,2.926,0,0,0,.081-.552A2.02,2.02,0,0,0,18.818,0a1.925,1.925,0,0,0-1.593.735h-.853A1.925,1.925,0,0,0,14.778,0a2.02,2.02,0,0,0-.914,3.822,2.926,2.926,0,0,0,.081.552l-1.007-.314A1.545,1.545,0,0,0,11.823,6.94l1.312.525A8.211,8.211,0,0,0,12.774,8.5a2.658,2.658,0,0,0-.093.684h-1.25L8.251,7.415l-.535.963,3.022,1.679V18.73h12.12V10.057ZM13.86,2.02a.919.919,0,0,1,.918-.918.755.755,0,0,1,.788.421l.15.314H17.88l.15-.314a.755.755,0,0,1,.788-.421.918.918,0,0,1,.223,1.809l-.46.115.045.472c.006.061.009.12.009.176a1.836,1.836,0,1,1-3.673,0c0-.056,0-.115.009-.175l.045-.472-.46-.115A.916.916,0,0,1,13.86,2.02Zm-.016,6.744a10.7,10.7,0,0,1,.487-1.3l.255-.6-2.353-.941a.443.443,0,0,1,.325-.824l.018.007,2.178.68a2.932,2.932,0,0,0,4.089,0L21,5.106l.036-.012a.443.443,0,0,1,.325.824l-2.353.941.255.6a10.708,10.708,0,0,1,.487,1.3,1.451,1.451,0,0,1,.059.417H13.785A1.451,1.451,0,0,1,13.843,8.764Zm7.913,8.864H11.84V10.283h9.916Z" transform="translate(-7.716 0)"/><path class="b" d="M181.685,310.37l2.293-2.293a1.7,1.7,0,0,0,.5-1.212v-.15a1.715,1.715,0,0,0-2.8-1.332,1.715,1.715,0,0,0-2.8,1.332v.15a1.7,1.7,0,0,0,.5,1.212Z" transform="translate(-172.603 -293.799)"/></g></g></svg>