<svg xmlns="http://www.w3.org/2000/svg" width="30" height="30" viewBox="0 0 30 30"><defs><style>.a,.d{fill:none;}.a{stroke:#5dd183;stroke-width:2px;}.b{fill:#5dd183;}.c{stroke:none;}</style></defs><g transform="translate(-188.003 -467.521)"><g transform="translate(188.003 467.997)"><g class="a" transform="translate(0 -0.476)"><circle class="c" cx="15" cy="15" r="15"/><circle class="d" cx="15" cy="15" r="14"/></g></g><path class="b" d="M14.514.257a.413.413,0,0,0-.752-.032A4.556,4.556,0,0,1,9.78,2.55H7.654a5.1,5.1,0,0,0-5.1,5.1,5.253,5.253,0,0,0,.04.545A12.712,12.712,0,0,1,10.2,5.95a.425.425,0,0,1,0,.85C3.525,6.8.693,10.895.066,12.433a.851.851,0,0,0,1.576.646,6.99,6.99,0,0,1,1.91-2.407A5.09,5.09,0,0,0,8.2,12.723c4.171-.3,7.107-4.044,7.107-8.624A9.662,9.662,0,0,0,14.514.257Z" transform="matrix(0.966, 0.259, -0.259, 0.966, 196.618, 473.45)"/></g></svg>