<svg xmlns="http://www.w3.org/2000/svg" width="35.437" height="36" viewBox="0 0 35.437 36"><defs><style>.a{fill:#d15b49;}</style></defs><g transform="translate(-0.977)"><g transform="translate(0.977)"><path class="a" d="M41.335,59.385l-.552,3.281a1.2,1.2,0,0,0,1.734,1.26l2.95-1.54,2.95,1.54a1.2,1.2,0,0,0,1.735-1.26L49.6,59.385l2.375-2.33a1.2,1.2,0,0,0-.663-2.039l-3.291-.488-1.482-2.979a1.2,1.2,0,0,0-2.144,0l-1.481,2.979-3.291.488a1.2,1.2,0,0,0-.663,2.039Z" transform="translate(-27.748 -36.208)"/><path class="a" d="M32.839,3.827H29.071V1.737A1.737,1.737,0,0,0,27.333,0h-.275a1.737,1.737,0,0,0-1.737,1.737v2.09h-13.3V1.737A1.737,1.737,0,0,0,10.289,0h-.276A1.737,1.737,0,0,0,8.276,1.737v2.09H4.552A3.579,3.579,0,0,0,.977,7.4V32.426A3.58,3.58,0,0,0,4.552,36H32.839a3.58,3.58,0,0,0,3.575-3.575V7.4A3.58,3.58,0,0,0,32.839,3.827Zm-.466,28.132H5.018V12.48H32.373Z" transform="translate(-0.977)"/></g></g></svg>