<svg xmlns="http://www.w3.org/2000/svg" width="23.021" height="23.021" viewBox="0 0 23.021 23.021"><defs><style>.a{fill:#959595;}</style></defs><path class="a" d="M9.307,180.9a.9.9,0,0,0-.9-.9h-3.6a.9.9,0,0,0-.9.9v1.613H0v1.8H3.912v1.534a.9.9,0,0,0,.9.9h3.6a.9.9,0,0,0,.9-.9v-1.534H23.021v-1.8H9.307Zm-1.8,4.047H5.71V181.8h1.8Z" transform="translate(0 -171.907)"/><path class="a" d="M19.379,362.9a.9.9,0,0,0-.9-.9h-3.6a.9.9,0,0,0-.9.9v1.574H0v1.8H13.984v1.574a.9.9,0,0,0,.9.9h3.6a.9.9,0,0,0,.9-.9v-1.574h3.642v-1.8H19.379Zm-1.8,4.047h-1.8V363.8h1.8Z" transform="translate(0 -345.723)"/><path class="a" d="M19.469,2.518V.9a.9.9,0,0,0-.9-.9h-3.6a.9.9,0,0,0-.9.9V2.518H0v1.8H14.073V5.845a.9.9,0,0,0,.9.9h3.6a.9.9,0,0,0,.9-.9V4.316h3.552v-1.8Zm-1.8,2.428h-1.8V1.8h1.8Z"/></svg>