<svg xmlns="http://www.w3.org/2000/svg" width="23.25" height="23.25" viewBox="0 0 23.25 23.25"><defs><style>.a{fill:#d2d2d2;}</style></defs><path class="a" d="M15,3.375A11.625,11.625,0,1,0,26.625,15,11.623,11.623,0,0,0,15,3.375Zm-.24,16.99a1.152,1.152,0,1,1,1.2-1.151A1.167,1.167,0,0,1,14.76,20.365Zm2.247-5.416c-.972.564-1.3.978-1.3,1.693v.442H13.765l-.017-.481a2.327,2.327,0,0,1,1.319-2.459c.945-.564,1.341-.922,1.341-1.615a1.357,1.357,0,0,0-1.5-1.2,1.414,1.414,0,0,0-1.5,1.375H11.423c.039-1.8,1.369-3.074,3.616-3.074,2.1,0,3.538,1.162,3.538,2.834A2.736,2.736,0,0,1,17.006,14.95Z" transform="translate(-3.375 -3.375)"/></svg>