<svg xmlns="http://www.w3.org/2000/svg" width="20.359" height="20.359" viewBox="0 0 20.359 20.359"><defs><style>.a{fill:#d15b49;}</style></defs><path class="a" d="M2.545,21.786a.636.636,0,0,1-.429-.166C2.03,21.541,0,19.665,0,17.7A2.631,2.631,0,0,1,2.545,15,2.631,2.631,0,0,1,5.09,17.7c0,1.961-2.03,3.837-2.116,3.916A.636.636,0,0,1,2.545,21.786Z" transform="translate(0 -2.275)"/><path class="a" d="M13.621,22.331H2.886a.636.636,0,1,1,0-1.272H13.621a.212.212,0,0,0,.143-.368L8.121,15.585a1.484,1.484,0,0,1,1-2.585h7.341a.636.636,0,0,1,0,1.272H9.118a.212.212,0,0,0-.143.368l5.642,5.106a1.484,1.484,0,0,1-1,2.585Z" transform="translate(-0.341 -1.972)"/><path class="a" d="M18.242,0A4.273,4.273,0,0,0,14,4.294c0,3.269,3.671,6.447,3.828,6.581a.635.635,0,0,0,.826,0c.157-.134,3.828-3.313,3.828-6.581A4.273,4.273,0,0,0,18.242,0Zm0,5.938a1.7,1.7,0,1,1,1.7-1.7A1.7,1.7,0,0,1,18.242,5.938Z" transform="translate(-2.124)"/></svg>