<svg xmlns="http://www.w3.org/2000/svg" width="45" height="45" viewBox="0 0 45 45"><defs><style>.a,.d{fill:none;}.a{stroke:#ff296a;stroke-width:2px;}.b{fill:#ff296a;}.c{stroke:none;}</style></defs><g transform="translate(0 0)"><g class="a" transform="translate(0)"><circle class="c" cx="22.5" cy="22.5" r="22.5"/><circle class="d" cx="22.5" cy="22.5" r="21.5"/></g></g><g transform="translate(10.883 13.583)"><g transform="translate(0 0)"><g transform="translate(0 0)"><path class="b" d="M35.675,35.049h0a.832.832,0,0,0-.592.245.841.841,0,0,0-.249.6V48.556a.847.847,0,0,0,.846.844c1.966,0,5.259.414,7.53,2.792V38.94a.809.809,0,0,0-.116-.428C41.228,35.51,37.645,35.054,35.675,35.049Z" transform="translate(-32.065 -35.049)"/><path class="b" d="M165.127,48.555V35.892a.841.841,0,0,0-.249-.6.832.832,0,0,0-.591-.245h0c-1.97,0-5.553.461-7.418,3.464a.809.809,0,0,0-.116.428V52.191c2.272-2.377,5.565-2.787,7.531-2.792A.847.847,0,0,0,165.127,48.555Z" transform="translate(-144.296 -35.048)"/><path class="b" d="M180.611,71.8H180V82.388a2.16,2.16,0,0,1-2.153,2.155,9.366,9.366,0,0,0-6.363,2.173,20.329,20.329,0,0,1,8.94.173.844.844,0,0,0,1.033-.823V72.645A.845.845,0,0,0,180.611,71.8Z" transform="translate(-157.857 -68.881)"/><path class="b" d="M1.457,82.388V71.8H.844A.845.845,0,0,0,0,72.645v13.42a.844.844,0,0,0,1.033.823,20.328,20.328,0,0,1,8.94-.172A9.366,9.366,0,0,0,3.61,84.543,2.16,2.16,0,0,1,1.457,82.388Z" transform="translate(0 -68.881)"/></g></g></g></svg>