<svg xmlns="http://www.w3.org/2000/svg" width="21" height="27.569" viewBox="0 0 21 27.569"><defs><style>.a{fill:#d2d2d2;}</style></defs><g transform="translate(-61)"><g transform="translate(61)"><g transform="translate(0)"><path class="a" d="M79.577,25.954H73.105l6.8-9.159a10.5,10.5,0,1,0-16.812,0l6.8,9.162H63.423a.808.808,0,1,0,0,1.615H79.577a.808.808,0,1,0,0-1.615ZM64.388,15.825a8.885,8.885,0,1,1,14.222,0L71.5,25.407Z" transform="translate(-61)"/></g></g><g transform="translate(64.231 3.231)"><g transform="translate(0)"><path class="a" d="M128.269,60a7.269,7.269,0,1,0,7.269,7.269A7.277,7.277,0,0,0,128.269,60Zm0,12.923a5.621,5.621,0,0,1-3.1-.925,3.231,3.231,0,0,1,6.191,0A5.621,5.621,0,0,1,128.269,72.923Zm-1.615-6.462a1.615,1.615,0,1,1,1.615,1.615A1.617,1.617,0,0,1,126.654,66.462Zm5.992,4.382a4.839,4.839,0,0,0-2.034-2.162,3.231,3.231,0,1,0-4.687,0,4.839,4.839,0,0,0-2.034,2.162,5.654,5.654,0,1,1,8.754,0Z" transform="translate(-121 -60)"/></g></g></g></svg>