<svg xmlns="http://www.w3.org/2000/svg" width="38" height="57.868" viewBox="0 0 38 57.868"><defs><style>.a{fill:#fff;}.b,.d{fill:#385be6;}.c,.d{stroke:none;}</style></defs><g transform="translate(-267 -203)"><g class="a" transform="translate(267 203)"><path class="c" d="M 19 36.5 C 14.32557964324951 36.5 9.930950164794922 34.67967987060547 6.625629901885986 31.37437057495117 C 3.320319890975952 28.06904983520508 1.5 23.67441940307617 1.5 19 C 1.5 14.32557964324951 3.320319890975952 9.930950164794922 6.625629901885986 6.625629901885986 C 9.930950164794922 3.320319890975952 14.32557964324951 1.5 19 1.5 C 23.67441940307617 1.5 28.06904983520508 3.320319890975952 31.37437057495117 6.625629901885986 C 34.67967987060547 9.930950164794922 36.5 14.32557964324951 36.5 19 C 36.5 23.67441940307617 34.67967987060547 28.06904983520508 31.37437057495117 31.37437057495117 C 28.06904983520508 34.67967987060547 23.67441940307617 36.5 19 36.5 Z"/><path class="d" d="M 19 3 C 14.72624969482422 3 10.70829010009766 4.664291381835938 7.686290740966797 7.686290740966797 C 4.664291381835938 10.70829010009766 3 14.72624969482422 3 19 C 3 23.27375030517578 4.664291381835938 27.29170989990234 7.686290740966797 30.3137092590332 C 10.70829010009766 33.33570861816406 14.72624969482422 35 19 35 C 23.27375030517578 35 27.29170989990234 33.33570861816406 30.3137092590332 30.3137092590332 C 33.33570861816406 27.29170989990234 35 23.27375030517578 35 19 C 35 14.72624969482422 33.33570861816406 10.70829010009766 30.3137092590332 7.686290740966797 C 27.29170989990234 4.664291381835938 23.27375030517578 3 19 3 M 19 0 C 29.49341011047363 0 38 8.506589889526367 38 19 C 38 29.49341011047363 29.49341011047363 38 19 38 C 8.506589889526367 38 0 29.49341011047363 0 19 C 0 8.506589889526367 8.506589889526367 0 19 0 Z"/></g><path class="b" d="M1909.672,226.038l16.815,34.83,18.016-34.83s-4.324,13.212-18.016,13.212S1909.672,226.038,1909.672,226.038Z" transform="translate(-1641)"/><g transform="translate(276.08 142.204)"><path class="b" d="M17.707,234.547H1.673A1.663,1.663,0,0,0,0,236.127c0,.051,0,4.081,0,4.078a.568.568,0,0,0,.568.568H2.46v.93a.578.578,0,0,0,.54.583.568.568,0,0,0,.6-.567v-.946H15.784v.93a.578.578,0,0,0,.54.583.568.568,0,0,0,.6-.567v-.946h1.893a.568.568,0,0,0,.568-.568v-4.012A1.661,1.661,0,0,0,17.707,234.547Z" transform="translate(0 -155.43)"/><path class="b" d="M43.188,76.6a1.705,1.705,0,0,1,1.7-1.7h3.634a1.705,1.705,0,0,1,1.7,1.7v1.383h4.714A6.636,6.636,0,0,0,48.525,73H44.891a6.636,6.636,0,0,0-6.417,4.979h4.714Z" transform="translate(-37.018)"/><path class="b" d="M197.2,153h-3.634a.568.568,0,0,0-.568.568v1.383h4.769V153.57A.568.568,0,0,0,197.2,153Z" transform="translate(-185.698 -76.972)"/></g></g></svg>