<svg xmlns="http://www.w3.org/2000/svg" width="38" height="57.868" viewBox="0 0 38 57.868"><defs><style>.a{fill:#fff;}.b,.d{fill:#ffd429;}.c,.d{stroke:none;}</style></defs><g transform="translate(-267 -203)"><g class="a" transform="translate(267 203)"><path class="c" d="M 19 36.5 C 14.32557964324951 36.5 9.930950164794922 34.67967987060547 6.625629901885986 31.37437057495117 C 3.320319890975952 28.06904983520508 1.5 23.67441940307617 1.5 19 C 1.5 14.32557964324951 3.320319890975952 9.930950164794922 6.625629901885986 6.625629901885986 C 9.930950164794922 3.320319890975952 14.32557964324951 1.5 19 1.5 C 23.67441940307617 1.5 28.06904983520508 3.320319890975952 31.37437057495117 6.625629901885986 C 34.67967987060547 9.930950164794922 36.5 14.32557964324951 36.5 19 C 36.5 23.67441940307617 34.67967987060547 28.06904983520508 31.37437057495117 31.37437057495117 C 28.06904983520508 34.67967987060547 23.67441940307617 36.5 19 36.5 Z"/><path class="d" d="M 19 3 C 14.72624969482422 3 10.70829010009766 4.664291381835938 7.686290740966797 7.686290740966797 C 4.664291381835938 10.70829010009766 3 14.72624969482422 3 19 C 3 23.27375030517578 4.664291381835938 27.29170989990234 7.686290740966797 30.3137092590332 C 10.70829010009766 33.33570861816406 14.72624969482422 35 19 35 C 23.27375030517578 35 27.29170989990234 33.33570861816406 30.3137092590332 30.3137092590332 C 33.33570861816406 27.29170989990234 35 23.27375030517578 35 19 C 35 14.72624969482422 33.33570861816406 10.70829010009766 30.3137092590332 7.686290740966797 C 27.29170989990234 4.664291381835938 23.27375030517578 3 19 3 M 19 0 C 29.49341011047363 0 38 8.506589889526367 38 19 C 38 29.49341011047363 29.49341011047363 38 19 38 C 8.506589889526367 38 0 29.49341011047363 0 19 C 0 8.506589889526367 8.506589889526367 0 19 0 Z"/></g><path class="b" d="M1909.672,226.038l16.815,34.83,18.016-34.83s-4.324,13.212-18.016,13.212S1909.672,226.038,1909.672,226.038Z" transform="translate(-1641)"/><g transform="translate(247.491 212)"><path class="b" d="M312.716,1.011V2.628h4.016V1.01A.547.547,0,0,0,316.439,0h-3.433a.547.547,0,0,0-.291,1.011Z" transform="translate(-272.62 0)"/><path class="b" d="M279.489,240h6.936v3.8h-6.936Z" transform="translate(-240.854 -231.236)"/><path class="b" d="M286.059,104.023l-.164-.217a2.542,2.542,0,0,1-.538-1.605V102h-4.016v.2a2.542,2.542,0,0,1-.538,1.605l-.164.217a3.614,3.614,0,0,0-.744,1.919H286.8A3.614,3.614,0,0,0,286.059,104.023Z" transform="translate(-241.246 -98.275)"/><path class="b" d="M274.008,375.276a1.164,1.164,0,0,1-.158-.606V374h-6.936v.671a1.164,1.164,0,0,1-.156.6,2.539,2.539,0,0,0,2.219,3.764h2.811a2.54,2.54,0,0,0,2.537-2.537A2.475,2.475,0,0,0,274.008,375.276Z" transform="translate(-228.279 -360.344)"/><path class="b" d="M33.06,355.975l-2.3-1.785h-1.04a1.979,1.979,0,0,0,0,1.785H33.06Z" transform="translate(0 -341.26)"/><path class="b" d="M117.72,354.5v-.314h-4.993l2.7,2.1Z" transform="translate(-80.18 -341.26)"/><path class="b" d="M37.891,433.095H36.833l-.439.341a.548.548,0,0,1-.672,0l-.439-.341H30.352a3.337,3.337,0,0,0,3.3,2.881h4.561a3.333,3.333,0,0,0,.639-.062,3.718,3.718,0,0,1-.472-.636A3.612,3.612,0,0,1,37.891,433.095Z" transform="translate(-0.812 -417.284)"/><path class="b" d="M37.578,194.927a5.068,5.068,0,0,1,.038-.619A4.844,4.844,0,0,0,35.9,194H34.416a4.874,4.874,0,0,0-4.867,4.753h8.029Z" transform="translate(-0.039 -186.915)"/></g></g></svg>