<svg xmlns="http://www.w3.org/2000/svg" width="38" height="57.868" viewBox="0 0 38 57.868"><defs><style>.a{fill:rgba(0,0,0,0.3);stroke:#ff296a;stroke-width:3px;}.b{fill:#ff296a;}.c{stroke:none;}.d{fill:none;}</style></defs><g transform="translate(-267 -203)"><g class="a" transform="translate(267 203)"><circle class="c" cx="19" cy="19" r="19"/><circle class="d" cx="19" cy="19" r="17.5"/></g><path class="b" d="M1909.672,226.038l16.815,34.83,18.016-34.83s-4.324,13.212-18.016,13.212S1909.672,226.038,1909.672,226.038Z" transform="translate(-1641)"/><g transform="translate(275 177.952)"><g transform="translate(0 35.048)"><g transform="translate(0 0)"><path class="b" d="M35.648,35.049h0a.805.805,0,0,0-.572.237.813.813,0,0,0-.24.58V48.115a.82.82,0,0,0,.818.817c1.9,0,5.087.4,7.285,2.7V38.813a.783.783,0,0,0-.112-.414C41.02,35.495,37.553,35.053,35.648,35.049Z" transform="translate(-32.156 -35.049)"/><path class="b" d="M164.853,48.114V35.865a.815.815,0,0,0-.813-.817h0c-1.906,0-5.372.446-7.176,3.351a.783.783,0,0,0-.112.414V51.631c2.2-2.3,5.383-2.7,7.285-2.7A.82.82,0,0,0,164.853,48.114Z" transform="translate(-144.703 -35.048)"/><path class="b" d="M180.313,71.8h-.592V82.042a2.09,2.09,0,0,1-2.083,2.085,9.06,9.06,0,0,0-6.155,2.1,19.665,19.665,0,0,1,8.648.167.817.817,0,0,0,1-.8V72.618A.818.818,0,0,0,180.313,71.8Z" transform="translate(-158.302 -68.976)"/><path class="b" d="M1.409,82.042V71.8H.817A.818.818,0,0,0,0,72.618V85.6a.817.817,0,0,0,1,.8,19.664,19.664,0,0,1,8.648-.167,9.06,9.06,0,0,0-6.155-2.1A2.09,2.09,0,0,1,1.409,82.042Z" transform="translate(0 -68.976)"/></g></g></g></g></svg>