<svg xmlns="http://www.w3.org/2000/svg" width="22.438" height="22.438" viewBox="0 0 22.438 22.438"><defs><style>.a{fill:none;}.b,.c{stroke:none;}.c{fill:#df8d81;}</style></defs><g class="a"><path class="b" d="M11.219,12.621A6.311,6.311,0,1,0,4.908,6.311,6.312,6.312,0,0,0,11.219,12.621Zm5.609,1.4H14.414a7.629,7.629,0,0,1-6.39,0H5.609A5.609,5.609,0,0,0,0,19.633v.7a2.1,2.1,0,0,0,2.1,2.1H20.334a2.1,2.1,0,0,0,2.1-2.1v-.7A5.609,5.609,0,0,0,16.828,14.024Z"/><path class="c" d="M 20.33442497253418 20.43798446655273 C 20.39152336120605 20.43798446655273 20.43798446655273 20.39152336120605 20.43798446655273 20.33442497253418 L 20.43798446655273 19.63324356079102 C 20.43798446655273 17.64295387268066 18.81877326965332 16.02374458312988 16.82849502563477 16.02374458312988 L 14.82567310333252 16.02374458312988 C 13.67422580718994 16.4892749786377 12.46318435668945 16.72492408752441 11.218994140625 16.72492408752441 C 9.978988647460938 16.72492408752441 8.768270492553711 16.48921966552734 7.613670825958252 16.02374458312988 L 5.609494209289551 16.02374458312988 C 3.619214057922363 16.02374458312988 2.000004053115845 17.64295387268066 2.000004053115845 19.63324356079102 L 2.000004053115845 20.33442497253418 C 2.000004053115845 20.39152336120605 2.046464204788208 20.43798446655273 2.103564023971558 20.43798446655273 L 20.33442497253418 20.43798446655273 M 11.218994140625 10.62136459350586 C 13.59591388702393 10.62136459350586 15.5296745300293 8.687603950500488 15.5296745300293 6.310684204101563 C 15.5296745300293 3.933764219284058 13.59591388702393 2.000004053115845 11.218994140625 2.000004053115845 C 8.842074394226074 2.000004053115845 6.908314228057861 3.933764219284058 6.908314228057861 6.310684204101563 C 6.908314228057861 8.687603950500488 8.842074394226074 10.62136459350586 11.218994140625 10.62136459350586 M 20.33442497253418 22.43798446655273 L 2.103564023971558 22.43798446655273 C 0.9422241449356079 22.43798446655273 4.140625151194399e-06 21.49576377868652 4.140625151194399e-06 20.33442497253418 L 4.140625151194399e-06 19.63324356079102 C 4.140625151194399e-06 16.53486442565918 2.511124134063721 14.02374458312988 5.609494209289551 14.02374458312988 L 8.024213790893555 14.02374458312988 C 9.001494407653809 14.47075366973877 10.07956409454346 14.72492408752441 11.218994140625 14.72492408752441 C 12.35842418670654 14.72492408752441 13.44088459014893 14.47075366973877 14.41377449035645 14.02374458312988 L 16.82849502563477 14.02374458312988 C 19.92686462402344 14.02374458312988 22.43798446655273 16.53486442565918 22.43798446655273 19.63324356079102 L 22.43798446655273 20.33442497253418 C 22.43798446655273 21.49576377868652 21.49576377868652 22.43798446655273 20.33442497253418 22.43798446655273 Z M 11.218994140625 12.62136459350586 C 7.734973907470703 12.62136459350586 4.908314228057861 9.794704437255859 4.908314228057861 6.310684204101563 C 4.908314228057861 2.826664209365845 7.734973907470703 4.140625151194399e-06 11.218994140625 4.140625151194399e-06 C 14.7030143737793 4.140625151194399e-06 17.5296745300293 2.826664209365845 17.5296745300293 6.310684204101563 C 17.5296745300293 9.794704437255859 14.7030143737793 12.62136459350586 11.218994140625 12.62136459350586 Z"/></g></svg>