<svg xmlns="http://www.w3.org/2000/svg" width="25.417" height="24.023" viewBox="0 0 25.417 24.023"><defs><style>.a{fill:#df8d81;}</style></defs><g transform="translate(0 -8.144)"><path class="a" d="M233.825,8.144a2.826,2.826,0,1,0,2.824,2.826A2.825,2.825,0,0,0,233.825,8.144Z" transform="translate(-211.232 0)"/><ellipse class="a" cx="2.824" cy="2.826" rx="2.824" ry="2.826" transform="translate(0 26.515)"/><path class="a" d="M169.891,56.218l4.128-2.065a4.106,4.106,0,0,1-.825-1.647l-4.128,2.065A4.1,4.1,0,0,1,169.891,56.218Z" transform="translate(-154.598 -40.566)"/><path class="a" d="M86.077,232.553a4.093,4.093,0,0,1-.738-1.744l-6.109,1.019a4.084,4.084,0,0,1,.091,1.852Z" transform="translate(-72.45 -203.61)"/><path class="a" d="M148.009,146.26l-1.878-2.819a4.1,4.1,0,0,1-1.631.873l1.878,2.819A4.107,4.107,0,0,1,148.009,146.26Z" transform="translate(-132.134 -123.718)"/><path class="a" d="M167.822,189.783a2.826,2.826,0,1,0,2.824,2.826A2.825,2.825,0,0,0,167.822,189.783Z" transform="translate(-150.878 -166.095)"/><ellipse class="a" cx="2.824" cy="2.826" rx="2.824" ry="2.826" transform="translate(8.472 13.797)"/></g></svg>