<svg xmlns="http://www.w3.org/2000/svg" width="25.038" height="27.778" viewBox="0 0 25.038 27.778"><defs><style>.a{fill:#df8d81;}</style></defs><g transform="translate(8.824)"><g transform="translate(0)"><path class="a" d="M191.585,0a3.7,3.7,0,0,0-3.7,3.7V4.81H189.8V3.7a1.784,1.784,0,0,1,3.568,0V4.81h1.911V3.7A3.7,3.7,0,0,0,191.585,0Z" transform="translate(-187.89)"/></g></g><g transform="translate(7.996 23.286)"><path class="a" d="M179.76,429.2a2.583,2.583,0,0,1-2.58,2.581h-.064a2.583,2.583,0,0,1-2.58-2.581h-1.911a4.5,4.5,0,0,0,4.492,4.492h.064a4.5,4.5,0,0,0,4.492-4.492Z" transform="translate(-172.624 -429.205)"/></g><g transform="translate(0 3.536)"><g transform="translate(0)"><path class="a" d="M50.136,84.567l-2.715-4.224V74.922a9.653,9.653,0,1,0-19.3,0v5.422L25.4,84.567a.956.956,0,0,0,.8,1.473H49.333a.956.956,0,0,0,.8-1.472Zm-22.18-.439,1.92-2.987a.955.955,0,0,0,.152-.517v-5.7a7.742,7.742,0,1,1,15.482,0v5.7a.956.956,0,0,0,.152.517l1.92,2.987Z" transform="translate(-25.25 -65.174)"/></g></g></svg>