<svg xmlns="http://www.w3.org/2000/svg" width="34.91" height="39.458" viewBox="0 0 34.91 39.458"><defs><style>.a{fill:#d15b49;}</style></defs><g transform="translate(-29.509)"><path class="a" d="M313,2.134V5.549h8.477V2.133A1.155,1.155,0,0,0,320.862,0h-7.247A1.155,1.155,0,0,0,313,2.134Z" transform="translate(-261.144 0)"/><path class="a" d="M279.489,240h14.643v8.015H279.489Z" transform="translate(-230.715 -221.502)"/><path class="a" d="M292.905,106.271l-.345-.458a5.366,5.366,0,0,1-1.135-3.389V102h-8.477v.425a5.366,5.366,0,0,1-1.135,3.389l-.345.458a7.629,7.629,0,0,0-1.571,4.051h14.58A7.629,7.629,0,0,0,292.905,106.271Z" transform="translate(-231.091 -94.138)"/><path class="a" d="M282.419,376.7a2.456,2.456,0,0,1-.333-1.279V374H267.443v1.415a2.458,2.458,0,0,1-.33,1.273,5.361,5.361,0,0,0,4.685,7.946h5.934a5.362,5.362,0,0,0,5.356-5.356A5.224,5.224,0,0,0,282.419,376.7Z" transform="translate(-218.669 -345.175)"/><path class="a" d="M37.006,357.959l-4.854-3.769H29.958a4.178,4.178,0,0,0,0,3.769h7.048Z" transform="translate(0 -326.894)"/><path class="a" d="M123.267,354.854v-.664h-10.54l5.7,4.424Z" transform="translate(-76.805 -326.894)"/><path class="a" d="M46.266,433.095H44.034l-.927.72a1.156,1.156,0,0,1-1.418,0l-.927-.72H30.352a7.045,7.045,0,0,0,6.97,6.081h9.627a7.039,7.039,0,0,0,1.35-.13,7.847,7.847,0,0,1-1-1.343A7.624,7.624,0,0,1,46.266,433.095Z" transform="translate(-0.778 -399.718)"/><path class="a" d="M46.5,195.961a10.7,10.7,0,0,1,.08-1.307A10.226,10.226,0,0,0,42.965,194H39.823A10.289,10.289,0,0,0,29.549,204.03H46.5Z" transform="translate(-0.037 -179.046)"/></g></svg>