<svg xmlns="http://www.w3.org/2000/svg" width="38.841" height="40.053" viewBox="0 0 38.841 40.053"><defs><style>.a{fill:#d15b49;}</style></defs><g transform="translate(-7.716)"><path class="a" d="M46.557,17.915l-1.144-2.06-6.8,3.779H35.938a5.681,5.681,0,0,0-.2-1.464,17.563,17.563,0,0,0-.772-2.207l2.806-1.122A3.3,3.3,0,0,0,35.392,8.68l-2.154.672a6.257,6.257,0,0,0,.173-1.18A4.32,4.32,0,0,0,31.456,0a4.116,4.116,0,0,0-3.407,1.571H26.224A4.116,4.116,0,0,0,22.817,0a4.32,4.32,0,0,0-1.955,8.173,6.258,6.258,0,0,0,.173,1.18L18.881,8.68A3.3,3.3,0,0,0,16.5,14.841L19.3,15.963a17.558,17.558,0,0,0-.772,2.207,5.685,5.685,0,0,0-.2,1.464H15.661l-6.8-3.778-1.144,2.06,6.462,3.59V40.053H40.095V21.5Zm-25.7-13.6a1.966,1.966,0,0,1,1.963-1.963,1.614,1.614,0,0,1,1.686.9l.32.671H29.45l.32-.671a1.614,1.614,0,0,1,1.686-.9,1.963,1.963,0,0,1,.477,3.868l-.983.245.1,1.009c.012.13.018.256.018.376a3.927,3.927,0,1,1-7.853,0c0-.12.006-.246.018-.375l.1-1.009-.983-.245A1.959,1.959,0,0,1,20.854,4.319Zm-.035,14.422a22.889,22.889,0,0,1,1.042-2.783l.546-1.292-5.032-2.013a.947.947,0,0,1,.695-1.761l.038.015,4.658,1.453a6.269,6.269,0,0,0,8.744,0l4.62-1.441.076-.027a.947.947,0,0,1,.695,1.761l-5.032,2.013.546,1.292a22.9,22.9,0,0,1,1.042,2.783,3.1,3.1,0,0,1,.125.892H20.693A3.1,3.1,0,0,1,20.818,18.741ZM37.739,37.7h-21.2V21.99h21.2Z"/><path class="a" d="M184.867,316.483l4.9-4.9a3.643,3.643,0,0,0,1.074-2.593v-.32a3.667,3.667,0,0,0-5.977-2.848,3.667,3.667,0,0,0-5.977,2.848v.32a3.643,3.643,0,0,0,1.074,2.593Z" transform="translate(-157.731 -281.047)"/></g></svg>