<svg xmlns="http://www.w3.org/2000/svg" width="22.04" height="25.282" viewBox="0 0 22.04 25.282"><defs><style>.a{fill:#df8d81;}</style></defs><g transform="translate(-32.828 0.001)"><g transform="translate(32.828 -0.001)"><path class="a" d="M53.408,8.779l-2.478-.9a3,3,0,1,0-3.9-4.563L45.322,4.827l-.339-2.268a3,3,0,1,0-5.918,1l-2.337-.85a2.221,2.221,0,0,0-2.844,1.326l-1.012,2.78a.74.74,0,0,0,.442.948l11.559,4.207H33.712a.74.74,0,0,0-.74.74V23.063a2.221,2.221,0,0,0,2.219,2.219H49.983A2.221,2.221,0,0,0,52.2,23.063V14.636l.572.208a.74.74,0,0,0,.948-.442l1.012-2.78A2.221,2.221,0,0,0,53.408,8.779ZM40.369,23.8H35.192a.74.74,0,0,1-.74-.74V13.448h5.917Zm2.958,0H41.848V13.448h1.479Zm4.685-19.38a1.522,1.522,0,1,1,.488,2.57l-2.4-.875Zm-6.9-2.647a1.522,1.522,0,0,1,2.4,1l.379,2.54-2.4-.875A1.529,1.529,0,0,1,41.117,1.775Zm.348,7.379-6.95-2.53.759-2.085a.741.741,0,0,1,.948-.442l6.255,2.277Zm2.78,1.012-1.39-.506,1.012-2.78,1.39.506Zm6.478,12.9a.74.74,0,0,1-.74.74H44.806V13.448h4.131l1.785.65v8.965Zm2.621-11.946L52.585,13.2l-6.95-2.53,1.012-2.78L52.9,10.169A.74.74,0,0,1,53.344,11.117Z" transform="translate(-32.828 0.001)"/></g></g></svg>