<svg xmlns="http://www.w3.org/2000/svg" width="30" height="30" viewBox="0 0 30 30"><defs><style>.a,.d{fill:none;}.a{stroke:#29a2ff;stroke-width:2px;}.b{fill:#29a2ff;}.c{stroke:none;}</style></defs><g transform="translate(-188.003 -467.521)"><g transform="translate(188.003 467.997)"><g class="a" transform="translate(0 -0.476)"><circle class="c" cx="15" cy="15" r="15"/><circle class="d" cx="15" cy="15" r="14"/></g></g><g transform="translate(107.687 474.76)"><path class="b" d="M100.3,3.9H96.324V.489a.5.5,0,0,0-.5-.489H94.709a.5.5,0,0,0-.5.489V3.9H90.229a.5.5,0,0,0-.5.489V5.483a.5.5,0,0,0,.5.489H94.21V16.232a.5.5,0,0,0,.5.489h1.115a.5.5,0,0,0,.5-.489V5.972H100.3a.5.5,0,0,0,.5-.489V4.391a.5.5,0,0,0-.5-.489Z" transform="translate(0)"/></g></g></svg>