<svg xmlns="http://www.w3.org/2000/svg" width="27.802" height="27.802" viewBox="0 0 27.802 27.802"><defs><style>.a{fill:#d15b49;}</style></defs><path class="a" d="M17.376,15.06a1.158,1.158,0,0,0-1.158,1.158v4.634A1.16,1.16,0,0,1,15.06,22.01H11.584V4.634a2.335,2.335,0,0,0-1.578-2.2l-.343-.115h5.4a1.16,1.16,0,0,1,1.158,1.158V6.951a1.158,1.158,0,1,0,2.317,0V3.475A3.48,3.48,0,0,0,15.06,0H2.606a.9.9,0,0,0-.124.025C2.427.021,2.374,0,2.317,0A2.319,2.319,0,0,0,0,2.317V23.168a2.335,2.335,0,0,0,1.578,2.2l6.971,2.324a2.4,2.4,0,0,0,.718.108,2.319,2.319,0,0,0,2.317-2.317V24.327H15.06a3.48,3.48,0,0,0,3.475-3.475V16.218a1.158,1.158,0,0,0-1.158-1.158Z" transform="translate(0 0)"/><path class="a" d="M25.4,9.973,20.77,5.339a1.158,1.158,0,0,0-1.977.819V9.634H14.158a1.158,1.158,0,0,0,0,2.317h4.634v3.475a1.158,1.158,0,0,0,1.977.819L25.4,11.611a1.157,1.157,0,0,0,0-1.638Z" transform="translate(2.06 0.792)"/></svg>