<svg xmlns="http://www.w3.org/2000/svg" width="73.021" height="73.021" viewBox="0 0 73.021 73.021"><defs><style>.a{fill:#df8d81;}</style></defs><path class="a" d="M121,140.254A19.254,19.254,0,1,0,140.254,121,19.275,19.275,0,0,0,121,140.254Zm19.254-14.975a14.975,14.975,0,1,1-14.975,14.975A14.992,14.992,0,0,1,140.254,125.279Z" transform="translate(-103.743 -103.743)"/><path class="a" d="M368.906,368.905a2.139,2.139,0,0,0,0,3.025l10.329,10.329a2.139,2.139,0,0,0,3.025-3.025l-10.329-10.329A2.139,2.139,0,0,0,368.906,368.905Z" transform="translate(-315.756 -315.755)"/><path class="a" d="M44.946,41.921a2.139,2.139,0,0,0-3.025,3.025L52.25,55.276a2.139,2.139,0,0,0,3.025-3.025Z" transform="translate(-35.405 -35.405)"/><path class="a" d="M41.921,382.261a2.139,2.139,0,0,0,3.025,0l10.329-10.329a2.139,2.139,0,0,0-3.025-3.025L41.921,379.235A2.139,2.139,0,0,0,41.921,382.261Z" transform="translate(-35.405 -315.756)"/><path class="a" d="M382.261,41.921a2.139,2.139,0,0,0-3.025,0L368.906,52.25a2.139,2.139,0,0,0,3.025,3.025l10.329-10.329A2.139,2.139,0,0,0,382.261,41.921Z" transform="translate(-315.756 -35.405)"/><path class="a" d="M311.2,407.458a2.139,2.139,0,0,0-1.158,2.8l1.637,3.953a2.139,2.139,0,1,0,3.953-1.637L314,408.616A2.14,2.14,0,0,0,311.2,407.458Z" transform="translate(-265.684 -349.207)"/><path class="a" d="M165.228,55.051a2.139,2.139,0,0,0,1.158-2.8L164.749,48.3A2.139,2.139,0,1,0,160.8,49.94l1.637,3.953A2.139,2.139,0,0,0,165.228,55.051Z" transform="translate(-137.723 -40.281)"/><path class="a" d="M52.255,310.043,48.3,311.68a2.139,2.139,0,0,0,1.637,3.953L53.893,314a2.139,2.139,0,0,0-1.637-3.953Z" transform="translate(-40.281 -265.684)"/><path class="a" d="M410.253,166.387l3.953-1.637a2.139,2.139,0,0,0-1.637-3.953l-3.953,1.637a2.139,2.139,0,1,0,1.637,3.953Z" transform="translate(-349.206 -137.724)"/><path class="a" d="M162.434,408.616l-1.637,3.953a2.139,2.139,0,0,0,3.953,1.637l1.637-3.953a2.139,2.139,0,1,0-3.953-1.637Z" transform="translate(-137.724 -349.207)"/><path class="a" d="M313.995,53.893l1.637-3.953a2.139,2.139,0,0,0-3.953-1.637l-1.637,3.953a2.139,2.139,0,0,0,3.953,1.637Z" transform="translate(-265.684 -40.281)"/><path class="a" d="M53.893,162.434,49.94,160.8A2.139,2.139,0,0,0,48.3,164.75l3.953,1.637a2.139,2.139,0,1,0,1.637-3.953Z" transform="translate(-40.281 -137.724)"/><path class="a" d="M414.206,311.68l-3.953-1.637A2.139,2.139,0,1,0,408.616,314l3.953,1.637a2.139,2.139,0,0,0,1.637-3.953Z" transform="translate(-349.206 -265.685)"/><path class="a" d="M241,423.139v8.7a2.139,2.139,0,1,0,4.279,0v-8.7a2.139,2.139,0,0,0-4.279,0Z" transform="translate(-206.629 -360.957)"/><path class="a" d="M245.279,10.839v-8.7a2.139,2.139,0,1,0-4.279,0v8.7a2.139,2.139,0,1,0,4.279,0Z" transform="translate(-206.629)"/><path class="a" d="M0,243.139a2.139,2.139,0,0,0,2.139,2.139h8.7a2.139,2.139,0,1,0,0-4.279h-8.7A2.139,2.139,0,0,0,0,243.139Z" transform="translate(0 -206.629)"/><path class="a" d="M431.839,241h-8.7a2.139,2.139,0,0,0,0,4.279h8.7a2.139,2.139,0,1,0,0-4.279Z" transform="translate(-360.957 -206.629)"/></svg>