<svg xmlns="http://www.w3.org/2000/svg" width="15.221" height="15.249" viewBox="0 0 15.221 15.249"><defs><style>.a{fill:none;stroke:#959595;stroke-linecap:round;stroke-linejoin:round;}</style></defs><path class="a" d="M17.387,13.667v2.145a1.43,1.43,0,0,1-1.559,1.43,14.149,14.149,0,0,1-6.17-2.195,13.942,13.942,0,0,1-4.29-4.29,14.149,14.149,0,0,1-2.195-6.2A1.43,1.43,0,0,1,4.6,3H6.741a1.43,1.43,0,0,1,1.43,1.23,9.18,9.18,0,0,0,.5,2.009A1.43,1.43,0,0,1,8.35,7.747l-.908.908a11.44,11.44,0,0,0,4.29,4.29l.908-.908a1.43,1.43,0,0,1,1.509-.322,9.18,9.18,0,0,0,2.009.5,1.43,1.43,0,0,1,1.23,1.451Z" transform="translate(-2.667 -2.5)"/></svg>