<svg xmlns="http://www.w3.org/2000/svg" width="19.847" height="20.617" viewBox="0 0 19.847 20.617"><defs><style>.a{fill:#959595;}</style></defs><g transform="translate(-58.779 -58.75) rotate(40)"><g transform="translate(91.399)"><path class="a" d="M102.127,0H99.353a.512.512,0,0,0-.467.3A2.05,2.05,0,0,1,97.019,1.51,2.05,2.05,0,0,1,95.152.3a.512.512,0,0,0-.467-.3H91.911A.512.512,0,0,0,91.4.512V16.969a.512.512,0,0,0,.512.512h2.774a.512.512,0,0,0,.467-.3,2.046,2.046,0,0,1,3.733,0,.512.512,0,0,0,.467.3h2.774a.512.512,0,0,0,.512-.512V.512A.512.512,0,0,0,102.127,0Zm-9.7,1.024h1.951a3.077,3.077,0,0,0,2.644,1.51,3.077,3.077,0,0,0,2.644-1.51h1.951V4.255H92.423Zm9.192,15.433H99.663a3.07,3.07,0,0,0-5.289,0H92.423V5.28h9.192Z" transform="translate(-91.399)"/></g></g></svg>