<svg xmlns="http://www.w3.org/2000/svg" xmlns:xlink="http://www.w3.org/1999/xlink" width="55" height="55.5" viewBox="0 0 55 55.5"><defs><style>.a{fill:#d8d8d8;}.b{clip-path:url(#a);}.c{fill:#fff;}</style><clipPath id="a"><path d="M19.41,22.183A11.092,11.092,0,1,0,8.319,11.092,11.091,11.091,0,0,0,19.41,22.183Zm7.764,2.773H25.727a15.084,15.084,0,0,1-12.634,0H11.646A11.649,11.649,0,0,0,0,36.6v3.6a4.16,4.16,0,0,0,4.159,4.159h30.5a4.16,4.16,0,0,0,4.159-4.159V36.6A11.649,11.649,0,0,0,27.174,24.956Z" transform="translate(108.65 29)"/></clipPath></defs><g transform="translate(-15 -15)"><circle class="a" cx="27.5" cy="27.5" r="27.5" transform="translate(15 15)"/><g class="b" transform="translate(-85.475 -2.866)"><circle class="c" cx="29.399" cy="29.399" r="29.399" transform="translate(98.333 14.033)"/></g></g></svg>