<svg xmlns="http://www.w3.org/2000/svg" width="113" height="33" viewBox="0 0 113 33"><defs><style>.a{fill:rgba(0,0,0,0.5);stroke:rgba(255,255,255,0.85);}.b,.c{fill:rgba(255,255,255,0.8);}.c{font-size:14px;font-family:SourceSansPro-Regular, Source Sans Pro;}.d{stroke:none;}.e{fill:none;}</style></defs><g transform="translate(-14 -91)"><g class="a" transform="translate(14 91)"><rect class="d" width="113" height="33" rx="16"/><rect class="e" x="0.5" y="0.5" width="112" height="32" rx="15.5"/></g><path class="b" d="M17.629,19.09H1.824A1.824,1.824,0,0,1,0,17.266V6.324A1.824,1.824,0,0,1,1.824,4.5H17.629a1.824,1.824,0,0,1,1.824,1.824V17.266A1.824,1.824,0,0,1,17.629,19.09ZM4.255,6.628A2.128,2.128,0,1,0,6.383,8.755,2.128,2.128,0,0,0,4.255,6.628ZM2.432,16.658h14.59V12.4L13.7,9.078a.456.456,0,0,0-.645,0L7.9,14.226,5.793,12.117a.456.456,0,0,0-.645,0L2.432,14.834Z" transform="translate(26.915 95.5)"/><text class="c" transform="translate(54 112)"><tspan x="0" y="0">Ver galeria</tspan></text></g></svg>